<svg xmlns="http://www.w3.org/2000/svg" version="1.1" xmlns:xlink="http://www.w3.org/1999/xlink" xmlns:svgjs="http://svgjs.dev/svgjs" width="1000" height="1000" viewBox="0 0 1000 1000"><rect width="1000" height="1000" fill="#000000"></rect><g transform="matrix(0.7,0,0,0.7,149.83625522880487,320.8)"><svg viewBox="0 0 390 200" data-background-color="#ffffff" preserveAspectRatio="xMidYMid meet" height="512" width="1000" xmlns="http://www.w3.org/2000/svg" xmlns:xlink="http://www.w3.org/1999/xlink"><g id="tight-bounds" transform="matrix(1,0,0,1,0.09122922966585634,0)"><svg viewBox="0 0 389.81753679601997 200" height="200" width="389.81753679601997"><g><svg viewBox="0 0 391.76662448 200.99999999999997" height="200" width="389.81753679601997"><g><rect width="12.62534448" height="200.99999999999997" x="206.09064" y="0" fill="#ffffff" opacity="1" stroke-width="0" stroke="transparent" fill-opacity="1" class="rect-o-0" data-fill-palette-color="primary" rx="1%" id="o-0" data-palette-color="#ffa458"></rect></g><g transform="matrix(1,0,0,1,251.76662448000002,0.4999999999999858)"><svg viewBox="0 0 140 200" height="200" width="140"><g><svg viewBox="0 0 140 200" height="200" width="140"><g><svg viewBox="0 0 140 200" height="200" width="140"><g transform="matrix(1,0,0,1,0,0)"><svg width="140" viewBox="3.999999761581421 -6.299999713897705 7 7" height="200" data-palette-color="#ffa458"><svg></svg><g class="undefined-text-0" data-fill-palette-color="primary" id="text-0"><path xmlns="http://www.w3.org/2000/svg" d="M7.5 0.7c-0.967 0-1.79-0.343-2.47-1.03-0.687-0.68-1.03-1.503-1.03-2.47v0c0-0.967 0.343-1.793 1.03-2.48 0.68-0.68 1.503-1.02 2.47-1.02v0c0.967 0 1.793 0.34 2.48 1.02 0.68 0.687 1.02 1.513 1.02 2.48v0c0 0.967-0.34 1.79-1.02 2.47-0.687 0.687-1.513 1.03-2.48 1.03z" fill="#ffffff" fill-rule="nonzero" stroke="none" stroke-width="1" stroke-linecap="butt" stroke-linejoin="miter" stroke-miterlimit="10" stroke-dasharray="" stroke-dashoffset="0" font-family="none" font-weight="none" font-size="none" text-anchor="none" style="mix-blend-mode: normal" data-fill-palette-color="primary" opacity="1"></path></g></svg></g></svg></g></svg></g></svg></g><g transform="matrix(1,0,0,1,0,26.03544562939183)"><svg viewBox="0 0 173.04 148.9291087412163" height="148.9291087412163" width="173.04"><g><svg xmlns="http://www.w3.org/2000/svg" xmlns:xlink="http://www.w3.org/1999/xlink" version="1.1" x="0" y="0" viewBox="1.896409034729004 8.800000190734863 95.62813568115234 82.3035888671875" enable-background="new 0 0 100 100" xml:space="preserve" height="148.9291087412163" width="173.04" class="icon-icon-0" data-fill-palette-color="accent" id="icon-0"><path d="M94.3 62.6c-1.8-0.1-5.6 2-6.7 2.5-3.7 1.9-8.8 5-12.2 7.4-0.2 0.2-0.5 0.4-0.8 0.5-1.5 1-3.1 1.7-4.9 2.1-9.8 2.2-24.1 2.4-24.1 2.4l-0.8 0c-0.6 0-1.2-0.4-1.3-1-0.1-0.7 0.4-1.3 1.1-1.4L65.9 73c2.3-0.3 4.2-2.5 3.9-5.1-0.3-2.6-2.5-4.4-4.9-4.2l-18.9-0.2c-1.3 0-3.3-0.3-4.6-0.7-12.2-3.7-19-0.2-22.7 1.4-0.8-1.4-2.4-2.3-4.1-2.2l-8.1 0.6c-2.7 0.2-4.7 2.5-4.6 5.2l1.3 18.7c0.2 2.7 2.5 4.7 5.2 4.6l8.1-0.6c1.7-0.1 3.1-1.2 3.7-2.7l35.7 1.6c4 0.4 7.7-0.1 11.2-2l1-0.6 27-16.4c1.3-0.8 2.3-2.2 2.3-3.8C97.9 64.9 96.9 62.8 94.3 62.6zM11.6 86.7c-1.5 0-2.8-1.2-2.8-2.8 0-1.5 1.2-2.8 2.8-2.8 1.5 0 2.8 1.2 2.8 2.8C14.4 85.5 13.2 86.7 11.6 86.7zM73.8 65.5c2.8-1.6 8.4-4.4 11.5-5.7 1.5-0.6 3-0.6 4.4 0.4-1.1 0.4-2.1 0.9-3.1 1.4-3.2 1.7-8.8 4.8-11.6 6.8-0.3 0.2-0.6 0.4-0.8 0.6 0-0.5 0-1 0-1.6-0.1-0.7-0.2-1.3-0.4-1.9C73.8 65.6 73.8 65.5 73.8 65.5zM70.1 60.8c1.9-1 6.1-2.4 7.9-3.2 1.5-0.6 3-0.6 4.4 0.4-2.2 1-6.4 2.6-8.4 3.7l-1.4 0.8c-0.1 0.1-0.2 0.2-0.4 0.3C71.6 62 70.9 61.3 70.1 60.8zM73.6 15.8c-4.5-4.5-10.4-7-16.8-7-6.3 0-12.3 2.5-16.8 7-4.5 4.5-7 10.4-7 16.8 0 6.3 2.5 12.3 7 16.8 4.5 4.5 10.4 7 16.8 7 6.3 0 12.3-2.5 16.8-7 4.5-4.5 7-10.4 7-16.8C80.6 26.2 78.1 20.3 73.6 15.8zM74.1 23.1h-6.9c-0.7-3.1-1.8-6.1-3.3-8.9C68.3 15.9 71.9 19.1 74.1 23.1zM55.3 12.9c0.5 0 1-0.1 1.5-0.1 0.6 0 1.2 0 1.7 0.1 2 3.2 3.5 6.6 4.5 10.2H50.6C51.6 19.5 53.2 16.1 55.3 12.9zM49.9 14.1c-1.5 2.9-2.7 5.9-3.5 9h-6.9C41.8 19 45.5 15.8 49.9 14.1zM37.1 32.6c0-1.9 0.3-3.7 0.8-5.5h7.8c-0.3 1.9-0.4 3.8-0.4 5.7 0 1.7 0.1 3.5 0.3 5.2h-7.7C37.4 36.3 37.1 34.5 37.1 32.6zM39.5 42h6.8c0.7 3.1 1.8 6.1 3.3 8.9C45.3 49.2 41.7 46.1 39.5 42zM49.3 32.8c0-1.9 0.2-3.8 0.5-5.7h14.2c0.3 1.7 0.4 3.5 0.4 5.2 0 1.9-0.2 3.8-0.5 5.7H49.6C49.4 36.3 49.3 34.6 49.3 32.8zM58.2 52.3c-0.5 0-0.9 0-1.4 0-0.6 0-1.2 0-1.9-0.1-2-3.2-3.6-6.6-4.5-10.2h12.5C61.9 45.7 60.3 49.1 58.2 52.3zM63.6 51.1c1.5-2.9 2.7-5.9 3.5-9.1h7.1C71.8 46.2 68.1 49.5 63.6 51.1zM67.9 38c0.3-1.9 0.4-3.8 0.4-5.7 0-1.8-0.1-3.5-0.3-5.2h7.8c0.5 1.7 0.8 3.6 0.8 5.5 0 1.9-0.3 3.7-0.8 5.4H67.9z" fill="#ffffff" data-fill-palette-color="accent"></path></svg></g></svg></g></svg></g><defs></defs></svg><rect width="389.81753679601997" height="200" fill="none" stroke="none" visibility="hidden"></rect></g></svg></g></svg>